# xmcd
#
# Track frame offsets:
#	150
#	16182
#	33974
#	53089
#	89616
#	108824
#	126144
#	155328
#	175867
#	188272
#	208970
#	231379
#	251250
#
# Disc length: 3631 seconds
# Revision: 0
# Processed by: cddbd v1.5.2PL0 Copyright (c) Steve Scherf et al.
# Submitted via: dBpowerAMP V12.0
#
DISCID=9d0e2d0d
DTITLE=Hoochie Coochie Men featuring Jon Lord - Danger: White Men Dancing
DYEAR=2007
DGENRE=Blues Rock
TTITLE0=The Blues Just Got Sadder
TTITLE1=Gotta Find Me Some Fire
TTITLE2=Twisted System
TTITLE3=Over and Over
TTITLE4=Let It Go
TTITLE5=Heart of Stone
TTITLE6=If This Aint the Blues
TTITLE7=Danger White Men Dancing
TTITLE8=Dead Presidents
TTITLE9=Hoochie Cookie Man
TTITLE10=Bottle O' Wine
TTITLE11=Everybody Wants to Heaven
TTITLE12=Tell Your Story Walkin'
EXTD=
EXTT0=
EXTT1=
EXTT2=
EXTT3=
EXTT4=
EXTT5=
EXTT6=
EXTT7=
EXTT8=
EXTT9=
EXTT10=
EXTT11=
EXTT12=
PLAYORDER=
